<svg width="370" height="97" xmlns="http://www.w3.org/2000/svg" xmlns:xlink="http://www.w3.org/1999/xlink" overflow="hidden"><defs><clipPath id="clip0"><rect x="271" y="247" width="370" height="97"/></clipPath><clipPath id="clip1"><rect x="271" y="248" width="96" height="96"/></clipPath><clipPath id="clip2"><rect x="271" y="248" width="96" height="96"/></clipPath><clipPath id="clip3"><rect x="271" y="248" width="96" height="96"/></clipPath><clipPath id="clip4"><rect x="544" y="248" width="96" height="96"/></clipPath><clipPath id="clip5"><rect x="544" y="248" width="96" height="96"/></clipPath><clipPath id="clip6"><rect x="544" y="248" width="96" height="96"/></clipPath></defs><g clip-path="url(#clip0)" transform="translate(-271 -247)"><g clip-path="url(#clip1)"><g clip-path="url(#clip2)"><g clip-path="url(#clip3)"><path d="M335 278C335 286.837 327.837 294 319 294 310.163 294 303 286.837 303 278 303 269.163 310.163 262 319 262 327.837 262 335 269.163 335 278Z"/><path d="M351 330 351 314C351 311.6 349.8 309.2 347.8 307.6 343.4 304 337.8 301.6 332.2 300 328.2 298.8 323.8 298 319 298 314.6 298 310.2 298.8 305.8 300 300.2 301.6 294.6 304.4 290.2 307.6 288.2 309.2 287 311.6 287 314L287 330 351 330Z"/></g></g></g><g clip-path="url(#clip4)"><g clip-path="url(#clip5)"><g clip-path="url(#clip6)"><path d="M620 308 564 308 564 274 620 274 620 308ZM626 272C626 269.8 624.2 268 622 268L562 268C559.8 268 558 269.8 558 272L558 314 626 314 626 272Z"/><path d="M598 318 598 319C598 319.6 597.6 320 597 320L587 320C586.4 320 586 319.6 586 319L586 318 546 318 546 320C546 322.2 547.8 324 550 324L634 324C636.2 324 638 322.2 638 320L638 318 598 318Z"/></g></g></g><path d="M367 296 543.621 296" stroke="#000000" stroke-width="2" stroke-miterlimit="8" fill="none" fill-rule="evenodd"/></g></svg>